<svg xmlns="http://www.w3.org/2000/svg" width="300" height="300" viewBox="0 0 300 300"><rect width="300" height="300" fill="#18181f" rx="24"/><rect x="70" y="10" width="20" height="20" fill="#7B3F12"/><rect x="90" y="10" width="20" height="20" fill="#7B3F12"/><rect x="190" y="10" width="20" height="20" fill="#7B3F12"/><rect x="210" y="10" width="20" height="20" fill="#7B3F12"/><rect x="50" y="30" width="20" height="20" fill="#7B3F12"/><rect x="70" y="30" width="20" height="20" fill="#7B3F12"/><rect x="90" y="30" width="20" height="20" fill="#7B3F12"/><rect x="110" y="30" width="20" height="20" fill="#7B3F12"/><rect x="170" y="30" width="20" height="20" fill="#7B3F12"/><rect x="190" y="30" width="20" height="20" fill="#7B3F12"/><rect x="210" y="30" width="20" height="20" fill="#7B3F12"/><rect x="230" y="30" width="20" height="20" fill="#7B3F12"/><rect x="30" y="50" width="20" height="20" fill="#7B3F12"/><rect x="50" y="50" width="20" height="20" fill="#7B3F12"/><rect x="70" y="50" width="20" height="20" fill="#7B3F12"/><rect x="90" y="50" width="20" height="20" fill="#7B3F12"/><rect x="110" y="50" width="20" height="20" fill="#7B3F12"/><rect x="130" y="50" width="20" height="20" fill="#7B3F12"/><rect x="150" y="50" width="20" height="20" fill="#7B3F12"/><rect x="170" y="50" width="20" height="20" fill="#7B3F12"/><rect x="190" y="50" width="20" height="20" fill="#7B3F12"/><rect x="210" y="50" width="20" height="20" fill="#7B3F12"/><rect x="230" y="50" width="20" height="20" fill="#7B3F12"/><rect x="250" y="50" width="20" height="20" fill="#7B3F12"/><rect x="30" y="70" width="20" height="20" fill="#7B3F12"/><rect x="50" y="70" width="20" height="20" fill="#7B3F12"/><rect x="70" y="70" width="20" height="20" fill="#F5E6C8"/><rect x="90" y="70" width="20" height="20" fill="#F5E6C8"/><rect x="110" y="70" width="20" height="20" fill="#F5E6C8"/><rect x="130" y="70" width="20" height="20" fill="#7B3F12"/><rect x="150" y="70" width="20" height="20" fill="#7B3F12"/><rect x="170" y="70" width="20" height="20" fill="#F5E6C8"/><rect x="190" y="70" width="20" height="20" fill="#F5E6C8"/><rect x="210" y="70" width="20" height="20" fill="#F5E6C8"/><rect x="230" y="70" width="20" height="20" fill="#7B3F12"/><rect x="250" y="70" width="20" height="20" fill="#7B3F12"/><rect x="30" y="90" width="20" height="20" fill="#7B3F12"/><rect x="50" y="90" width="20" height="20" fill="#7B3F12"/><rect x="70" y="90" width="20" height="20" fill="#F5E6C8"/><rect x="90" y="90" width="20" height="20" fill="#FFE030"/><rect x="110" y="90" width="20" height="20" fill="#FFE030"/><rect x="130" y="90" width="20" height="20" fill="#F5E6C8"/><rect x="150" y="90" width="20" height="20" fill="#7B3F12"/><rect x="170" y="90" width="20" height="20" fill="#F5E6C8"/><rect x="190" y="90" width="20" height="20" fill="#FFE030"/><rect x="210" y="90" width="20" height="20" fill="#FFE030"/><rect x="230" y="90" width="20" height="20" fill="#F5E6C8"/><rect x="250" y="90" width="20" height="20" fill="#7B3F12"/><rect x="30" y="110" width="20" height="20" fill="#7B3F12"/><rect x="50" y="110" width="20" height="20" fill="#7B3F12"/><rect x="70" y="110" width="20" height="20" fill="#F5E6C8"/><rect x="90" y="110" width="20" height="20" fill="#FFE030"/><rect x="110" y="110" width="20" height="20" fill="#0A0A0A"/><rect x="130" y="110" width="20" height="20" fill="#F5E6C8"/><rect x="150" y="110" width="20" height="20" fill="#7B3F12"/><rect x="170" y="110" width="20" height="20" fill="#F5E6C8"/><rect x="190" y="110" width="20" height="20" fill="#FFE030"/><rect x="210" y="110" width="20" height="20" fill="#0A0A0A"/><rect x="230" y="110" width="20" height="20" fill="#F5E6C8"/><rect x="250" y="110" width="20" height="20" fill="#7B3F12"/><rect x="30" y="130" width="20" height="20" fill="#7B3F12"/><rect x="50" y="130" width="20" height="20" fill="#7B3F12"/><rect x="70" y="130" width="20" height="20" fill="#F5E6C8"/><rect x="90" y="130" width="20" height="20" fill="#FFE030"/><rect x="110" y="130" width="20" height="20" fill="#FFE030"/><rect x="130" y="130" width="20" height="20" fill="#F5E6C8"/><rect x="150" y="130" width="20" height="20" fill="#7B3F12"/><rect x="170" y="130" width="20" height="20" fill="#F5E6C8"/><rect x="190" y="130" width="20" height="20" fill="#FFE030"/><rect x="210" y="130" width="20" height="20" fill="#FFE030"/><rect x="230" y="130" width="20" height="20" fill="#F5E6C8"/><rect x="250" y="130" width="20" height="20" fill="#7B3F12"/><rect x="30" y="150" width="20" height="20" fill="#7B3F12"/><rect x="50" y="150" width="20" height="20" fill="#7B3F12"/><rect x="70" y="150" width="20" height="20" fill="#7B3F12"/><rect x="90" y="150" width="20" height="20" fill="#7B3F12"/><rect x="110" y="150" width="20" height="20" fill="#F5E6C8"/><rect x="130" y="150" width="20" height="20" fill="#E07808"/><rect x="150" y="150" width="20" height="20" fill="#E07808"/><rect x="170" y="150" width="20" height="20" fill="#F5E6C8"/><rect x="190" y="150" width="20" height="20" fill="#7B3F12"/><rect x="210" y="150" width="20" height="20" fill="#7B3F12"/><rect x="230" y="150" width="20" height="20" fill="#7B3F12"/><rect x="250" y="150" width="20" height="20" fill="#7B3F12"/><rect x="30" y="170" width="20" height="20" fill="#7B3F12"/><rect x="50" y="170" width="20" height="20" fill="#7B3F12"/><rect x="70" y="170" width="20" height="20" fill="#7B3F12"/><rect x="90" y="170" width="20" height="20" fill="#7B3F12"/><rect x="110" y="170" width="20" height="20" fill="#7B3F12"/><rect x="130" y="170" width="20" height="20" fill="#7B3F12"/><rect x="150" y="170" width="20" height="20" fill="#7B3F12"/><rect x="170" y="170" width="20" height="20" fill="#7B3F12"/><rect x="190" y="170" width="20" height="20" fill="#7B3F12"/><rect x="210" y="170" width="20" height="20" fill="#7B3F12"/><rect x="230" y="170" width="20" height="20" fill="#7B3F12"/><rect x="250" y="170" width="20" height="20" fill="#7B3F12"/><rect x="30" y="190" width="20" height="20" fill="#7B3F12"/><rect x="50" y="190" width="20" height="20" fill="#C47820"/><rect x="70" y="190" width="20" height="20" fill="#C47820"/><rect x="90" y="190" width="20" height="20" fill="#7B3F12"/><rect x="110" y="190" width="20" height="20" fill="#7B3F12"/><rect x="130" y="190" width="20" height="20" fill="#7B3F12"/><rect x="150" y="190" width="20" height="20" fill="#7B3F12"/><rect x="170" y="190" width="20" height="20" fill="#7B3F12"/><rect x="190" y="190" width="20" height="20" fill="#7B3F12"/><rect x="210" y="190" width="20" height="20" fill="#C47820"/><rect x="230" y="190" width="20" height="20" fill="#C47820"/><rect x="250" y="190" width="20" height="20" fill="#7B3F12"/><rect x="30" y="210" width="20" height="20" fill="#7B3F12"/><rect x="50" y="210" width="20" height="20" fill="#C47820"/><rect x="70" y="210" width="20" height="20" fill="#C47820"/><rect x="90" y="210" width="20" height="20" fill="#7B3F12"/><rect x="110" y="210" width="20" height="20" fill="#7B3F12"/><rect x="130" y="210" width="20" height="20" fill="#7B3F12"/><rect x="150" y="210" width="20" height="20" fill="#7B3F12"/><rect x="170" y="210" width="20" height="20" fill="#7B3F12"/><rect x="190" y="210" width="20" height="20" fill="#7B3F12"/><rect x="210" y="210" width="20" height="20" fill="#C47820"/><rect x="230" y="210" width="20" height="20" fill="#C47820"/><rect x="250" y="210" width="20" height="20" fill="#7B3F12"/><rect x="50" y="230" width="20" height="20" fill="#7B3F12"/><rect x="70" y="230" width="20" height="20" fill="#7B3F12"/><rect x="90" y="230" width="20" height="20" fill="#7B3F12"/><rect x="110" y="230" width="20" height="20" fill="#7B3F12"/><rect x="130" y="230" width="20" height="20" fill="#7B3F12"/><rect x="150" y="230" width="20" height="20" fill="#7B3F12"/><rect x="170" y="230" width="20" height="20" fill="#7B3F12"/><rect x="190" y="230" width="20" height="20" fill="#7B3F12"/><rect x="210" y="230" width="20" height="20" fill="#7B3F12"/><rect x="230" y="230" width="20" height="20" fill="#7B3F12"/><rect x="70" y="250" width="20" height="20" fill="#7B3F12"/><rect x="90" y="250" width="20" height="20" fill="#7B3F12"/><rect x="190" y="250" width="20" height="20" fill="#7B3F12"/><rect x="210" y="250" width="20" height="20" fill="#7B3F12"/><rect x="70" y="270" width="20" height="20" fill="#7B3F12"/><rect x="210" y="270" width="20" height="20" fill="#7B3F12"/></svg>